<svg version="1.1" id="Layer_1" xmlns="http://www.w3.org/2000/svg" xmlns:xlink="http://www.w3.org/1999/xlink" x="0px" y="0px"
	 width="100%" viewBox="0 0 1200 1497" enable-background="new 0 0 1200 1497" xml:space="preserve">
<path fill="#000000" opacity="1.000000" stroke="none" 
	d="
M1201.000000,424.000000 
	C1201.000000,782.333252 1201.000000,1140.166504 1201.000000,1497.999756 
	C801.000122,1497.999878 401.000275,1497.999878 1.000305,1498.000000 
	C1.000203,999.000244 1.000203,500.000458 1.000102,1.000506 
	C400.999725,1.000337 800.999451,1.000337 1200.999512,1.000169 
	C1201.000000,141.833328 1201.000000,282.666656 1201.000000,424.000000 
M988.105774,1130.431030 
	C991.761536,1124.333252 995.417236,1118.235474 999.471069,1111.473755 
	C1004.695618,1127.538696 1009.644409,1142.755615 1014.953857,1159.081787 
	C1019.290039,1151.452759 1023.193481,1144.656616 1027.028931,1137.822388 
	C1036.401489,1121.121948 1046.330322,1104.700439 1054.954102,1087.620728 
	C1066.799316,1064.161011 1078.352905,1040.501587 1088.750366,1016.375610 
	C1103.142700,982.979614 1116.758911,949.231262 1129.904785,915.322449 
	C1138.311157,893.638977 1145.429810,871.447876 1152.830078,849.385132 
	C1160.393555,826.835510 1167.937744,804.268616 1174.852661,781.515564 
	C1180.807373,761.921997 1185.506592,741.945679 1191.527710,722.374573 
	C1193.433472,716.179626 1193.404419,711.557617 1189.730347,706.090393 
	C1176.172607,685.915833 1163.864380,664.855530 1149.559570,645.241699 
	C1134.397339,624.452087 1117.504150,604.924438 1101.349487,584.859619 
	C1098.135376,580.867615 1094.842896,576.938782 1091.542969,572.927917 
	C1097.946167,569.515808 1103.621826,566.491394 1109.686646,563.259644 
	C1105.754272,554.394104 1102.338013,546.027100 1098.392212,537.917847 
	C1085.357300,511.129028 1069.780884,485.835175 1052.905640,461.313385 
	C1051.575317,459.380310 1050.484375,457.050201 1050.065674,454.761230 
	C1047.902954,442.940613 1046.235718,431.026703 1043.945435,419.232758 
	C1040.141479,399.644440 1036.427734,380.021057 1031.868896,360.601929 
	C1027.432007,341.702728 1022.627014,322.838928 1016.817322,304.325592 
	C1009.145874,279.879761 1001.345642,255.382126 991.732178,231.664139 
	C982.315491,208.431732 971.011902,185.917633 959.660645,163.532394 
	C952.228027,148.875015 944.115356,134.396332 934.738403,120.930069 
	C920.682251,100.743896 906.260437,80.634674 890.121460,62.125519 
	C873.350098,42.891136 854.780029,25.132330 832.147644,12.342690 
	C829.455200,10.821143 828.464050,10.862432 826.557068,12.882095 
	C822.442261,17.240122 818.062317,21.346573 813.843567,25.608170 
	C806.504700,33.021744 799.055054,40.334293 791.941772,47.959644 
	C787.024048,53.231419 782.059082,58.597595 778.047607,64.549919 
	C766.735046,81.335960 755.181641,98.030525 745.094421,115.550690 
	C735.808105,131.679688 727.458374,148.478226 720.232910,165.629272 
	C711.838196,185.555588 705.116943,206.186935 697.375244,227.315125 
	C689.639404,226.601242 680.983704,225.568314 672.297302,225.053558 
	C657.788940,224.193817 643.260803,223.669586 628.741638,222.989197 
	C627.595154,222.935471 626.456421,222.728760 625.310059,222.655487 
	C616.596741,222.098557 607.879639,221.090134 599.169312,221.143677 
	C590.638855,221.196091 582.123596,222.489532 573.586426,222.962341 
	C559.239929,223.756866 544.875122,224.223083 530.530945,225.051682 
	C524.321289,225.410400 518.144531,226.333389 511.951630,226.988266 
	C504.590271,227.766678 503.419312,227.045731 502.009644,221.628479 
	C495.899872,198.148849 487.212799,175.573181 477.097290,153.589157 
	C465.378296,128.120438 452.427826,103.231277 435.749969,80.600586 
	C425.301849,66.423203 414.253815,52.621117 402.609131,39.414040 
	C393.659973,29.264135 383.359558,20.305613 373.611725,10.770023 
	C358.445404,18.595619 345.498840,28.895102 333.442230,40.204510 
	C315.403259,57.125561 299.247070,75.800499 284.749023,95.848381 
	C278.023712,105.148163 271.391235,114.555466 265.384796,124.324806 
	C257.330780,137.424622 249.598236,150.747681 242.330109,164.298004 
	C234.819656,178.300095 227.540634,192.470184 221.062439,206.969818 
	C214.467087,221.731720 208.447128,236.801773 203.116974,252.065765 
	C195.304337,274.438904 187.653183,296.912811 181.189545,319.700073 
	C174.778702,342.301208 169.528763,365.257446 164.515503,388.220734 
	C160.732437,405.549103 158.178864,423.144043 154.971985,440.600861 
	C153.386307,449.232635 152.518295,457.683380 147.073563,465.607574 
	C135.022903,483.145874 123.799995,501.323395 113.341026,519.861694 
	C105.481392,533.792725 99.336746,548.691223 92.474861,563.062134 
	C99.182953,566.724854 105.035957,569.920593 110.796722,573.066040 
	C105.908829,578.855652 101.137886,584.404663 96.479301,590.046448 
	C87.408173,601.031982 77.733978,611.596130 69.500656,623.181335 
	C50.760803,649.550354 32.577621,676.321899 14.607817,703.223572 
	C11.966178,707.178223 7.673698,711.001099 9.586865,717.354553 
	C20.577568,753.853333 30.677364,790.630005 42.213116,826.952332 
	C52.712158,860.010376 64.294724,892.740417 76.101166,925.361145 
	C82.986053,944.383789 91.053558,962.990295 98.940422,981.635376 
	C108.755775,1004.839539 118.069023,1028.315430 129.172699,1050.900269 
	C143.231750,1079.496338 158.821945,1107.341797 173.868240,1135.448730 
	C177.970230,1143.111328 182.490234,1150.550049 187.341919,1159.003784 
	C192.659714,1142.787354 197.626434,1127.641479 202.778503,1111.930420 
	C203.703735,1113.343018 204.413498,1114.392822 205.089203,1115.463867 
	C209.839737,1122.994019 214.174179,1130.826660 219.408585,1138.003296 
	C233.039429,1156.691772 246.702179,1175.378784 261.042419,1193.520996 
	C273.244751,1208.958374 285.836304,1224.172241 299.285492,1238.519775 
	C317.998108,1258.482178 337.414734,1277.864624 359.202179,1294.544922 
	C373.981567,1305.859741 389.460419,1316.257812 404.474304,1327.273193 
	C407.107422,1329.205078 409.530060,1331.857788 411.125366,1334.697021 
	C419.307251,1349.258667 426.433716,1364.466431 435.345459,1378.552368 
	C449.271301,1400.563721 465.392792,1420.970581 485.441162,1437.913940 
	C493.162018,1444.439209 500.712952,1451.263550 508.997772,1457.004150 
	C530.415222,1471.844360 553.790771,1482.648438 579.247375,1488.584595 
	C586.640686,1490.308472 594.297852,1492.875122 601.642334,1492.354004 
	C611.717651,1491.638916 621.704041,1488.703857 631.564270,1486.098755 
	C666.460693,1476.878784 695.991272,1458.202271 721.842468,1433.498291 
	C730.199646,1425.511963 737.795715,1416.699585 745.432373,1407.995117 
	C761.700562,1389.452148 774.292542,1368.434204 785.510071,1346.601562 
	C790.048523,1337.768311 793.869568,1329.520874 803.273865,1323.628052 
	C819.203979,1313.645996 833.812073,1301.488770 848.611450,1289.785156 
	C865.082458,1276.759521 880.520447,1262.546143 894.581543,1246.903076 
	C908.896606,1230.977417 923.423157,1215.231079 937.355896,1198.976562 
	C946.027710,1188.859497 953.961060,1178.086670 961.876892,1167.350708 
	C970.685425,1155.403931 979.097717,1143.165039 988.105774,1130.431030 
z"/>
<path fill="#A1A9AC" opacity="1.000000" stroke="none" 
	d="
M987.894165,1130.742188 
	C979.097717,1143.165039 970.685425,1155.403931 961.876892,1167.350708 
	C953.961060,1178.086670 946.027710,1188.859497 937.355896,1198.976562 
	C923.423157,1215.231079 908.896606,1230.977417 894.581543,1246.903076 
	C880.520447,1262.546143 865.082458,1276.759521 848.611450,1289.785156 
	C833.812073,1301.488770 819.203979,1313.645996 803.273865,1323.628052 
	C793.869568,1329.520874 790.048523,1337.768311 785.510071,1346.601562 
	C774.292542,1368.434204 761.700562,1389.452148 745.432373,1407.995117 
	C737.795715,1416.699585 730.199646,1425.511963 721.842468,1433.498291 
	C695.991272,1458.202271 666.460693,1476.878784 631.564270,1486.098755 
	C621.704041,1488.703857 611.717651,1491.638916 601.642334,1492.354004 
	C594.297852,1492.875122 586.640686,1490.308472 579.247375,1488.584595 
	C553.790771,1482.648438 530.415222,1471.844360 508.997772,1457.004150 
	C500.712952,1451.263550 493.162018,1444.439209 485.441162,1437.913940 
	C465.392792,1420.970581 449.271301,1400.563721 435.345459,1378.552368 
	C426.433716,1364.466431 419.307251,1349.258667 411.125366,1334.697021 
	C409.530060,1331.857788 407.107422,1329.205078 404.474304,1327.273193 
	C389.460419,1316.257812 373.981567,1305.859741 359.202179,1294.544922 
	C337.414734,1277.864624 317.998108,1258.482178 299.285492,1238.519775 
	C285.836304,1224.172241 273.244751,1208.958374 261.042419,1193.520996 
	C246.702179,1175.378784 233.039429,1156.691772 219.408585,1138.003296 
	C214.174179,1130.826660 209.839737,1122.994019 205.089203,1115.463867 
	C204.413498,1114.392822 203.703735,1113.343018 202.778503,1111.930420 
	C197.626434,1127.641479 192.659714,1142.787354 187.341919,1159.003784 
	C182.490234,1150.550049 177.970230,1143.111328 173.868240,1135.448730 
	C158.821945,1107.341797 143.231750,1079.496338 129.172699,1050.900269 
	C118.069023,1028.315430 108.755775,1004.839539 98.940422,981.635376 
	C91.053558,962.990295 82.986053,944.383789 76.101166,925.361145 
	C64.294724,892.740417 52.712158,860.010376 42.213116,826.952332 
	C30.677364,790.630005 20.577568,753.853333 9.586865,717.354553 
	C7.673698,711.001099 11.966178,707.178223 14.607817,703.223572 
	C32.577621,676.321899 50.760803,649.550354 69.500656,623.181335 
	C77.733978,611.596130 87.408173,601.031982 96.479301,590.046448 
	C101.137886,584.404663 105.908829,578.855652 110.796722,573.066040 
	C105.035957,569.920593 99.182953,566.724854 92.474861,563.062134 
	C99.336746,548.691223 105.481392,533.792725 113.341026,519.861694 
	C123.799995,501.323395 135.022903,483.145874 147.073563,465.607574 
	C152.518295,457.683380 153.386307,449.232635 154.971985,440.600861 
	C158.178864,423.144043 160.732437,405.549103 164.515503,388.220734 
	C169.528763,365.257446 174.778702,342.301208 181.189545,319.700073 
	C187.653183,296.912811 195.304337,274.438904 203.116974,252.065765 
	C208.447128,236.801773 214.467087,221.731720 221.062439,206.969818 
	C227.540634,192.470184 234.819656,178.300095 242.330109,164.298004 
	C249.598236,150.747681 257.330780,137.424622 265.384796,124.324806 
	C271.391235,114.555466 278.023712,105.148163 284.749023,95.848381 
	C299.247070,75.800499 315.403259,57.125561 333.442230,40.204510 
	C345.498840,28.895102 358.445404,18.595619 373.611725,10.770023 
	C383.359558,20.305613 393.659973,29.264135 402.609131,39.414040 
	C414.253815,52.621117 425.301849,66.423203 435.749969,80.600586 
	C452.427826,103.231277 465.378296,128.120438 477.097290,153.589157 
	C487.212799,175.573181 495.899872,198.148849 502.009644,221.628479 
	C503.419312,227.045731 504.590271,227.766678 511.951630,226.988266 
	C518.144531,226.333389 524.321289,225.410400 530.530945,225.051682 
	C544.875122,224.223083 559.239929,223.756866 573.586426,222.962341 
	C582.123596,222.489532 590.638855,221.196091 599.169312,221.143677 
	C607.879639,221.090134 616.596741,222.098557 625.310059,222.655487 
	C626.456421,222.728760 627.595154,222.935471 628.741638,222.989197 
	C643.260803,223.669586 657.788940,224.193817 672.297302,225.053558 
	C680.983704,225.568314 689.639404,226.601242 697.375244,227.315125 
	C705.116943,206.186935 711.838196,185.555588 720.232910,165.629272 
	C727.458374,148.478226 735.808105,131.679688 745.094421,115.550690 
	C755.181641,98.030525 766.735046,81.335960 778.047607,64.549919 
	C782.059082,58.597595 787.024048,53.231419 791.941772,47.959644 
	C799.055054,40.334293 806.504700,33.021744 813.843567,25.608170 
	C818.062317,21.346573 822.442261,17.240122 826.557068,12.882095 
	C828.464050,10.862432 829.455200,10.821143 832.147644,12.342690 
	C854.780029,25.132330 873.350098,42.891136 890.121460,62.125519 
	C906.260437,80.634674 920.682251,100.743896 934.738403,120.930069 
	C944.115356,134.396332 952.228027,148.875015 959.660645,163.532394 
	C971.011902,185.917633 982.315491,208.431732 991.732178,231.664139 
	C1001.345642,255.382126 1009.145874,279.879761 1016.817322,304.325592 
	C1022.627014,322.838928 1027.432007,341.702728 1031.868896,360.601929 
	C1036.427734,380.021057 1040.141479,399.644440 1043.945435,419.232758 
	C1046.235718,431.026703 1047.902954,442.940613 1050.065674,454.761230 
	C1050.484375,457.050201 1051.575317,459.380310 1052.905640,461.313385 
	C1069.780884,485.835175 1085.357300,511.129028 1098.392212,537.917847 
	C1102.338013,546.027100 1105.754272,554.394104 1109.686646,563.259644 
	C1103.621826,566.491394 1097.946167,569.515808 1091.542969,572.927917 
	C1094.842896,576.938782 1098.135376,580.867615 1101.349487,584.859619 
	C1117.504150,604.924438 1134.397339,624.452087 1149.559570,645.241699 
	C1163.864380,664.855530 1176.172607,685.915833 1189.730347,706.090393 
	C1193.404419,711.557617 1193.433472,716.179626 1191.527710,722.374573 
	C1185.506592,741.945679 1180.807373,761.921997 1174.852661,781.515564 
	C1167.937744,804.268616 1160.393555,826.835510 1152.830078,849.385132 
	C1145.429810,871.447876 1138.311157,893.638977 1129.904785,915.322449 
	C1116.758911,949.231262 1103.142700,982.979614 1088.750366,1016.375610 
	C1078.352905,1040.501587 1066.799316,1064.161011 1054.954102,1087.620728 
	C1046.330322,1104.700439 1036.401489,1121.121948 1027.028931,1137.822388 
	C1023.193481,1144.656616 1019.290039,1151.452759 1014.953857,1159.081787 
	C1009.644409,1142.755615 1004.695618,1127.538696 999.471069,1111.473755 
	C995.417236,1118.235474 991.761536,1124.333252 987.894165,1130.742188 
M448.812836,139.694778 
	C428.379517,100.596931 403.291931,64.986053 369.964417,34.139469 
	C359.475647,43.524731 348.699158,52.231483 339.001709,62.008457 
	C299.357422,101.977936 270.014008,149.042130 246.011185,199.595367 
	C208.359421,278.895233 186.371948,362.837067 173.055298,449.255554 
	C171.483063,459.458710 168.596909,468.477325 162.438965,477.096741 
	C152.585648,490.888550 143.825012,505.501923 135.219925,520.131165 
	C128.752380,531.126587 123.253525,542.691772 117.174713,554.286987 
	C125.745689,558.914673 133.568192,563.138245 141.731125,567.545593 
	C140.267654,569.223267 139.214203,570.476440 138.113251,571.686401 
	C98.440071,615.286743 62.286160,661.546692 31.705658,712.049255 
	C29.807405,715.184143 29.448183,717.826599 30.415804,721.304138 
	C49.334442,789.296082 71.123932,856.352417 96.045227,922.377136 
	C119.865967,985.486145 146.392715,1047.386719 179.461746,1106.309692 
	C180.297165,1107.798218 181.301758,1109.191895 182.510681,1111.069702 
	C187.609955,1095.495239 192.478333,1080.626099 197.646606,1064.840942 
	C199.013397,1067.098022 199.805847,1068.323364 200.517456,1069.593994 
	C222.787018,1109.355835 248.224609,1146.986206 276.758362,1182.509644 
	C318.452301,1234.416870 365.233887,1280.782471 422.411072,1315.796875 
	C423.952515,1316.740845 425.241089,1318.574829 425.979218,1320.282715 
	C438.828583,1350.010010 455.608398,1377.280884 476.945435,1401.662598 
	C504.622223,1433.288818 537.464111,1457.236206 578.550781,1468.372437 
	C586.822449,1470.614258 595.762756,1473.424683 603.948486,1472.401611 
	C633.210388,1468.744385 659.667419,1457.099365 683.531738,1439.866821 
	C725.747498,1409.382446 754.727051,1368.499390 775.912476,1321.527710 
	C777.108215,1318.876465 779.362366,1316.218872 781.824036,1314.696167 
	C811.431519,1296.383911 838.491516,1274.822998 863.501038,1250.695801 
	C918.841919,1197.307861 964.032532,1136.139648 1001.838928,1069.356079 
	C1002.609741,1067.994385 1003.406372,1066.647339 1004.527832,1064.712280 
	C1009.714478,1080.457397 1014.625671,1095.366333 1019.823608,1111.145874 
	C1021.193359,1108.978760 1022.066223,1107.800659 1022.731506,1106.515015 
	C1033.361328,1085.975708 1044.598999,1065.722046 1054.466675,1044.822021 
	C1103.906494,940.107605 1141.082886,830.916016 1172.099487,719.525146 
	C1172.690796,717.401611 1171.792114,714.337341 1170.581177,712.315369 
	C1146.036133,671.331299 1117.483154,633.249084 1086.477783,596.972473 
	C1078.060791,587.124634 1069.364868,577.515259 1060.560059,567.527649 
	C1068.727417,563.141113 1076.576294,558.925659 1084.596680,554.618103 
	C1083.697388,552.569580 1083.064331,551.046509 1082.368042,549.552856 
	C1069.094849,521.079895 1052.370972,494.659882 1034.501709,468.911011 
	C1033.030029,466.790314 1031.688232,464.299683 1031.219238,461.805511 
	C1025.717407,432.540741 1021.245728,403.055115 1014.855347,373.989868 
	C999.027832,302.001648 975.425964,232.706100 940.009705,167.784988 
	C917.636719,126.773369 891.263916,88.651985 857.348999,56.202335 
	C849.334229,48.533783 840.552185,41.667271 831.888611,34.230564 
	C769.822754,93.637215 734.101807,166.546356 712.846863,248.351974 
	C638.391052,239.118988 563.807373,239.119675 489.189392,248.441223 
	C480.021240,210.305206 466.634796,174.566116 448.812836,139.694778 
z"/>
<path fill="#010F30" opacity="1.000000" stroke="none" 
	d="
M448.960663,140.035248 
	C466.634796,174.566116 480.021240,210.305206 489.189392,248.441223 
	C563.807373,239.119675 638.391052,239.118988 712.846863,248.351974 
	C734.101807,166.546356 769.822754,93.637215 831.888611,34.230564 
	C840.552185,41.667271 849.334229,48.533783 857.348999,56.202335 
	C891.263916,88.651985 917.636719,126.773369 940.009705,167.784988 
	C975.425964,232.706100 999.027832,302.001648 1014.855347,373.989868 
	C1021.245728,403.055115 1025.717407,432.540741 1031.219238,461.805511 
	C1031.688232,464.299683 1033.030029,466.790314 1034.501709,468.911011 
	C1052.370972,494.659882 1069.094849,521.079895 1082.368042,549.552856 
	C1083.064331,551.046509 1083.697388,552.569580 1084.596680,554.618103 
	C1076.576294,558.925659 1068.727417,563.141113 1060.560059,567.527649 
	C1069.364868,577.515259 1078.060791,587.124634 1086.477783,596.972473 
	C1117.483154,633.249084 1146.036133,671.331299 1170.581177,712.315369 
	C1171.792114,714.337341 1172.690796,717.401611 1172.099487,719.525146 
	C1141.082886,830.916016 1103.906494,940.107605 1054.466675,1044.822021 
	C1044.598999,1065.722046 1033.361328,1085.975708 1022.731506,1106.515015 
	C1022.066223,1107.800659 1021.193359,1108.978760 1019.823608,1111.145874 
	C1014.625671,1095.366333 1009.714478,1080.457397 1004.527832,1064.712280 
	C1003.406372,1066.647339 1002.609741,1067.994385 1001.838928,1069.356079 
	C964.032532,1136.139648 918.841919,1197.307861 863.501038,1250.695801 
	C838.491516,1274.822998 811.431519,1296.383911 781.824036,1314.696167 
	C779.362366,1316.218872 777.108215,1318.876465 775.912476,1321.527710 
	C754.727051,1368.499390 725.747498,1409.382446 683.531738,1439.866821 
	C659.667419,1457.099365 633.210388,1468.744385 603.948486,1472.401611 
	C595.762756,1473.424683 586.822449,1470.614258 578.550781,1468.372437 
	C537.464111,1457.236206 504.622223,1433.288818 476.945435,1401.662598 
	C455.608398,1377.280884 438.828583,1350.010010 425.979218,1320.282715 
	C425.241089,1318.574829 423.952515,1316.740845 422.411072,1315.796875 
	C365.233887,1280.782471 318.452301,1234.416870 276.758362,1182.509644 
	C248.224609,1146.986206 222.787018,1109.355835 200.517456,1069.593994 
	C199.805847,1068.323364 199.013397,1067.098022 197.646606,1064.840942 
	C192.478333,1080.626099 187.609955,1095.495239 182.510681,1111.069702 
	C181.301758,1109.191895 180.297165,1107.798218 179.461746,1106.309692 
	C146.392715,1047.386719 119.865967,985.486145 96.045227,922.377136 
	C71.123932,856.352417 49.334442,789.296082 30.415804,721.304138 
	C29.448183,717.826599 29.807405,715.184143 31.705658,712.049255 
	C62.286160,661.546692 98.440071,615.286743 138.113251,571.686401 
	C139.214203,570.476440 140.267654,569.223267 141.731125,567.545593 
	C133.568192,563.138245 125.745689,558.914673 117.174713,554.286987 
	C123.253525,542.691772 128.752380,531.126587 135.219925,520.131165 
	C143.825012,505.501923 152.585648,490.888550 162.438965,477.096741 
	C168.596909,468.477325 171.483063,459.458710 173.055298,449.255554 
	C186.371948,362.837067 208.359421,278.895233 246.011185,199.595367 
	C270.014008,149.042130 299.357422,101.977936 339.001709,62.008457 
	C348.699158,52.231483 359.475647,43.524731 369.964417,34.139469 
	C403.291931,64.986053 428.379517,100.596931 448.960663,140.035248 
M766.229980,695.927856 
	C759.302612,699.457458 752.417786,703.074036 745.431702,706.483276 
	C741.366943,708.466858 741.622986,710.920898 743.520752,714.453552 
	C750.617126,727.663513 764.072205,731.920166 779.035889,725.440735 
	C792.396912,719.655273 799.381958,703.558228 794.385315,689.257751 
	C790.466125,689.826782 786.459106,690.408569 782.536072,690.978210 
	C782.410034,707.398743 773.217712,715.931885 761.210327,711.566284 
	C763.276550,706.549622 765.345093,701.527344 767.696716,696.186951 
	C767.634033,695.926575 767.571350,695.666199 767.508789,695.405884 
	C767.333252,695.596802 767.157654,695.787781 766.229980,695.927856 
M436.970520,695.460999 
	C436.853607,695.771301 436.736694,696.081543 436.684479,697.129822 
	C438.795532,701.957275 440.906555,706.784668 443.016815,711.610291 
	C430.485565,715.562195 422.127106,707.753906 421.400757,690.920349 
	C417.472687,690.369446 413.457062,689.806274 409.522736,689.254456 
	C403.474487,710.225952 417.911316,728.787476 439.270294,728.246948 
	C449.318665,727.992737 458.446014,721.436951 461.532867,711.944092 
	C461.903320,710.804749 461.277344,708.422485 460.390625,707.937561 
	C452.725739,703.745789 444.895081,699.857056 436.970520,695.460999 
M340.667816,431.955200 
	C384.029083,388.153564 432.669128,351.309998 487.995026,320.736542 
	C472.294403,319.188965 458.007294,317.780701 442.845856,316.286285 
	C449.781494,311.961487 456.072144,307.785980 462.620758,304.064362 
	C465.794647,302.260712 466.627167,300.215485 465.646423,296.854065 
	C459.370270,275.342224 454.126282,253.473969 446.742462,232.352295 
	C432.204071,190.764572 411.990112,152.148041 382.307068,119.065536 
	C377.357605,113.549240 372.095062,108.313850 365.975433,101.898438 
	C354.083527,114.208450 342.373627,125.131393 332.051270,137.237457 
	C299.538391,175.368500 276.538269,219.086273 258.573883,265.607117 
	C237.980576,318.935883 225.599533,374.278442 218.316071,430.893341 
	C219.263870,429.425751 220.047745,427.895081 220.707764,426.312775 
	C233.173950,396.425934 245.775009,366.594208 258.049469,336.628723 
	C284.883484,271.119293 318.315155,209.284592 360.194733,152.115997 
	C361.200348,150.743240 362.285370,149.428665 363.575012,147.777588 
	C365.551208,151.208466 367.308807,154.032745 368.849823,156.970612 
	C383.056274,184.054688 389.741058,213.247070 392.756775,243.415207 
	C392.958344,245.431702 391.848938,247.916504 390.628326,249.686157 
	C377.286896,269.028656 365.467834,289.253021 355.694183,310.610962 
	C350.006226,323.040497 344.988190,335.776611 339.272003,349.314362 
	C348.372437,348.110046 356.081268,347.089874 364.451202,345.982239 
	C354.643280,365.304138 349.038788,385.431335 344.472168,405.853394 
	C342.538666,414.500122 341.507324,423.348572 339.633850,431.788147 
	C339.623260,432.064301 339.612640,432.340485 339.602051,432.616638 
	C339.728943,432.405304 339.855804,432.193970 340.667816,431.955200 
M725.296387,537.771240 
	C707.186096,549.413208 691.708130,563.970581 678.247498,580.683350 
	C676.611267,582.715027 675.415771,585.643372 675.250610,588.234863 
	C673.499329,615.706421 673.090698,643.191040 676.086487,670.611023 
	C678.206299,690.013916 681.497620,709.205139 690.000427,727.007324 
	C692.719421,732.700012 696.480164,737.895081 700.315857,744.228699 
	C719.569336,702.722900 741.116333,664.939209 778.950623,639.731384 
	C779.333862,639.976440 779.717041,640.221497 780.100220,640.466614 
	C777.620728,648.501648 775.141235,656.536743 772.478516,665.165527 
	C794.664185,662.254456 816.358032,661.925232 838.475525,664.245850 
	C836.880188,680.169739 831.320496,694.251526 822.794495,707.167542 
	C805.340881,733.607849 779.697937,748.418762 750.512329,757.281189 
	C749.891846,773.988220 749.827637,790.332825 748.527771,806.578491 
	C747.242554,822.640015 744.709167,838.601624 742.563660,855.893982 
	C741.089966,854.236572 740.849182,854.017944 740.670105,853.757080 
	C713.964111,814.847900 682.233032,780.740173 644.254639,752.555603 
	C642.921509,751.566345 641.944580,749.356323 641.796204,747.629822 
	C640.726379,735.182312 640.071594,722.698914 638.987915,710.252808 
	C636.300659,679.390076 633.981750,648.482056 630.534058,617.702087 
	C626.550476,582.138245 621.989563,546.622559 616.787903,511.216919 
	C612.644836,483.016510 607.162842,455.012787 602.275146,426.921783 
	C601.830017,426.931702 601.384888,426.941620 600.939758,426.951538 
	C599.296814,435.066711 597.325928,443.131378 596.066223,451.305634 
	C589.704407,492.585480 582.924622,533.814575 577.482910,575.218079 
	C573.361816,606.573792 570.750305,638.140198 567.989746,669.658691 
	C565.737061,695.378540 564.322327,721.171082 562.316589,746.914368 
	C562.150940,749.040833 560.830200,751.742432 559.159668,752.987976 
	C529.032227,775.450562 502.791351,801.820740 479.784668,831.456726 
	C473.905609,839.029785 468.357056,846.859375 462.554199,854.709839 
	C462.280640,854.141968 462.096466,853.895569 462.039642,853.622559 
	C455.731140,823.302979 453.758026,792.599854 454.175293,761.714050 
	C454.222504,758.218628 453.132050,756.994873 449.943573,755.885864 
	C442.272797,753.217896 434.556549,750.459473 427.307617,746.838684 
	C398.639435,732.518921 378.016602,710.950806 368.667450,679.710510 
	C367.184296,674.754578 366.447296,669.575378 365.225616,663.843994 
	C387.952515,663.843994 409.506989,663.843994 431.193909,663.843994 
	C428.931122,656.463806 426.438416,648.333740 423.945709,640.203674 
	C462.990082,664.940247 484.636353,702.800659 503.851929,744.240540 
	C507.641479,737.971008 511.377777,732.851013 514.026001,727.219238 
	C523.959900,706.093628 527.805176,683.375854 528.751587,660.388855 
	C529.750793,636.119080 529.020935,611.774475 528.813293,587.464600 
	C528.794250,585.233826 527.616394,582.515991 526.072021,580.876770 
	C516.831360,571.068604 507.752106,561.041199 497.799042,551.988525 
	C485.686432,540.971619 471.889160,532.213501 456.632782,526.025574 
	C455.250000,525.464661 452.397949,525.705811 451.718964,526.648315 
	C439.293518,543.897583 427.096130,561.311157 414.554443,579.109802 
	C420.671356,582.224609 425.530670,584.699097 430.771118,587.367615 
	C404.794922,620.831177 371.624268,642.743591 330.998230,653.562134 
	C329.876587,678.789429 331.027771,703.744995 334.096497,728.562134 
	C337.166779,753.392090 341.003387,778.127197 344.612640,803.672058 
	C341.723206,800.052795 339.042572,796.949280 336.638702,793.644470 
	C313.339203,761.612671 299.911499,725.330017 291.098450,687.113525 
	C290.333649,683.796875 289.045959,682.098938 285.766327,680.997925 
	C259.561951,672.201355 232.984726,664.948486 205.672058,660.460938 
	C202.494003,659.938782 200.373795,660.650818 198.057556,662.630188 
	C184.251999,674.427612 170.350006,686.112183 156.484238,697.839172 
	C154.891571,699.186096 153.322556,700.560974 151.508881,702.124390 
	C168.170563,713.009338 184.289032,723.539307 201.319366,734.665039 
	C173.028442,738.357483 146.141296,741.866760 118.784851,745.437256 
	C138.550278,827.407959 166.334656,906.375122 198.280365,984.907532 
	C203.542130,971.911011 208.405304,959.898926 213.611725,947.039062 
	C230.253815,979.306396 247.991852,1009.738831 268.739990,1038.316040 
	C289.624756,1067.081421 312.235046,1094.276611 341.114288,1115.789551 
	C328.676636,1070.559204 312.591736,1026.673950 294.746490,981.803650 
	C297.617188,983.564514 299.455536,984.325684 300.828247,985.591675 
	C312.694946,996.535583 325.209137,1006.892822 336.149750,1018.703857 
	C370.162598,1055.422485 395.288055,1098.090698 417.077240,1142.854126 
	C437.991669,1185.820312 454.055267,1230.659912 469.108429,1275.944092 
	C480.470856,1310.125610 499.801514,1338.994507 530.259583,1359.329224 
	C552.936401,1374.469116 577.938965,1383.678711 605.334839,1382.443604 
	C641.265259,1380.823730 671.778015,1365.866089 696.885437,1340.151245 
	C717.726807,1318.805786 730.048096,1292.694214 739.029846,1264.623535 
	C760.530945,1197.426392 787.542542,1132.685181 826.045471,1073.215576 
	C846.794922,1041.167114 870.696777,1011.805237 900.582336,987.690308 
	C901.877991,986.644897 903.202271,985.634033 904.533325,984.633911 
	C905.852661,983.642700 907.197510,982.685547 908.531128,981.713440 
	C891.709045,1026.126343 875.479797,1070.267090 863.143066,1115.876221 
	C919.617065,1070.447876 956.879395,1010.554321 990.581238,947.249207 
	C995.701294,959.902710 1000.543335,971.869141 1005.821899,984.914490 
	C1037.805664,906.317261 1065.508667,827.359070 1085.388062,745.411072 
	C1057.800659,741.812500 1030.874146,738.300171 1002.824951,734.641357 
	C1019.989075,723.441956 1036.166748,712.886169 1052.701294,702.097534 
	C1036.203735,688.165771 1020.348938,674.691406 1004.329407,661.416016 
	C1003.090149,660.388977 1000.617188,660.276855 998.844604,660.553284 
	C971.502258,664.817627 944.928162,672.117981 918.729370,680.924561 
	C915.408020,682.041016 913.752319,683.583435 912.948547,687.212341 
	C906.154297,717.888489 895.787292,747.293579 879.880798,774.487061 
	C873.984985,784.566345 866.946960,793.977417 860.429871,803.693237 
	C863.094116,778.160156 866.921143,753.408936 869.981934,728.563354 
	C873.056030,703.608948 874.444946,678.528687 873.138611,653.485352 
	C827.833923,642.151855 791.232727,612.574890 773.781616,587.197571 
	C778.665344,584.715515 783.524231,582.246033 789.612305,579.151917 
	C777.043030,561.326111 764.828613,543.917114 752.418640,526.648621 
	C751.769531,525.745239 749.114746,525.331482 747.975952,525.885864 
	C740.518494,529.516113 733.221558,533.476013 725.296387,537.771240 
M832.952454,161.457092 
	C835.372314,156.992386 837.792236,152.527679 840.403381,147.710037 
	C841.531433,149.070831 842.316895,149.918091 842.991089,150.846176 
	C870.415955,188.596802 895.883850,227.690018 915.611877,269.973236 
	C936.810547,315.408752 955.934937,361.812683 975.916504,407.814880 
	C978.780273,414.407928 981.374817,421.117920 984.093933,427.773804 
	C984.987976,425.151581 984.965515,422.744507 984.607300,420.388489 
	C983.506775,413.150818 982.302429,405.928619 981.094666,398.707703 
	C970.897766,337.740662 954.192566,278.756592 927.021484,223.033600 
	C907.342651,182.675858 883.263611,145.340485 850.470093,114.185509 
	C846.425171,110.342705 842.038330,106.859787 836.710449,102.261070 
	C825.516479,115.535919 813.946106,127.608070 804.262390,141.040375 
	C770.959351,187.235443 751.720947,239.565216 738.877319,294.590424 
	C737.567627,300.201233 738.875305,302.924286 743.791443,305.454468 
	C749.689148,308.489868 755.123413,312.425812 761.216003,316.259735 
	C746.098755,317.792053 731.899536,319.231354 717.700256,320.670624 
	C772.002808,351.580994 820.794373,388.758484 865.138855,433.597046 
	C859.669983,402.894043 853.189575,373.716339 839.857666,346.022369 
	C848.116577,347.094666 855.827087,348.095734 863.945496,349.149750 
	C863.340210,347.259003 862.939331,345.859528 862.447876,344.492615 
	C850.344055,310.826904 833.890564,279.409760 813.684387,249.914307 
	C812.454468,248.118912 811.133362,245.702301 811.326843,243.718353 
	C814.087952,215.407547 820.094788,187.907211 832.952454,161.457092 
z"/>
<path fill="#FEFEFE" opacity="1.000000" stroke="none" 
	d="
M725.584229,537.549683 
	C733.221558,533.476013 740.518494,529.516113 747.975952,525.885864 
	C749.114746,525.331482 751.769531,525.745239 752.418640,526.648621 
	C764.828613,543.917114 777.043030,561.326111 789.612305,579.151917 
	C783.524231,582.246033 778.665344,584.715515 773.781616,587.197571 
	C791.232727,612.574890 827.833923,642.151855 873.138611,653.485352 
	C874.444946,678.528687 873.056030,703.608948 869.981934,728.563354 
	C866.921143,753.408936 863.094116,778.160156 860.429871,803.693237 
	C866.946960,793.977417 873.984985,784.566345 879.880798,774.487061 
	C895.787292,747.293579 906.154297,717.888489 912.948547,687.212341 
	C913.752319,683.583435 915.408020,682.041016 918.729370,680.924561 
	C944.928162,672.117981 971.502258,664.817627 998.844604,660.553284 
	C1000.617188,660.276855 1003.090149,660.388977 1004.329407,661.416016 
	C1020.348938,674.691406 1036.203735,688.165771 1052.701294,702.097534 
	C1036.166748,712.886169 1019.989075,723.441956 1002.824951,734.641357 
	C1030.874146,738.300171 1057.800659,741.812500 1085.388062,745.411072 
	C1065.508667,827.359070 1037.805664,906.317261 1005.821899,984.914490 
	C1000.543335,971.869141 995.701294,959.902710 990.581238,947.249207 
	C956.879395,1010.554321 919.617065,1070.447876 863.143066,1115.876221 
	C875.479797,1070.267090 891.709045,1026.126343 908.531128,981.713440 
	C907.197510,982.685547 905.852661,983.642700 904.533325,984.633911 
	C903.202271,985.634033 901.877991,986.644897 900.582336,987.690308 
	C870.696777,1011.805237 846.794922,1041.167114 826.045471,1073.215576 
	C787.542542,1132.685181 760.530945,1197.426392 739.029846,1264.623535 
	C730.048096,1292.694214 717.726807,1318.805786 696.885437,1340.151245 
	C671.778015,1365.866089 641.265259,1380.823730 605.334839,1382.443604 
	C577.938965,1383.678711 552.936401,1374.469116 530.259583,1359.329224 
	C499.801514,1338.994507 480.470856,1310.125610 469.108429,1275.944092 
	C454.055267,1230.659912 437.991669,1185.820312 417.077240,1142.854126 
	C395.288055,1098.090698 370.162598,1055.422485 336.149750,1018.703857 
	C325.209137,1006.892822 312.694946,996.535583 300.828247,985.591675 
	C299.455536,984.325684 297.617188,983.564514 294.746490,981.803650 
	C312.591736,1026.673950 328.676636,1070.559204 341.114288,1115.789551 
	C312.235046,1094.276611 289.624756,1067.081421 268.739990,1038.316040 
	C247.991852,1009.738831 230.253815,979.306396 213.611725,947.039062 
	C208.405304,959.898926 203.542130,971.911011 198.280365,984.907532 
	C166.334656,906.375122 138.550278,827.407959 118.784851,745.437256 
	C146.141296,741.866760 173.028442,738.357483 201.319366,734.665039 
	C184.289032,723.539307 168.170563,713.009338 151.508881,702.124390 
	C153.322556,700.560974 154.891571,699.186096 156.484238,697.839172 
	C170.350006,686.112183 184.251999,674.427612 198.057556,662.630188 
	C200.373795,660.650818 202.494003,659.938782 205.672058,660.460938 
	C232.984726,664.948486 259.561951,672.201355 285.766327,680.997925 
	C289.045959,682.098938 290.333649,683.796875 291.098450,687.113525 
	C299.911499,725.330017 313.339203,761.612671 336.638702,793.644470 
	C339.042572,796.949280 341.723206,800.052795 344.612640,803.672058 
	C341.003387,778.127197 337.166779,753.392090 334.096497,728.562134 
	C331.027771,703.744995 329.876587,678.789429 330.998230,653.562134 
	C371.624268,642.743591 404.794922,620.831177 430.771118,587.367615 
	C425.530670,584.699097 420.671356,582.224609 414.554443,579.109802 
	C427.096130,561.311157 439.293518,543.897583 451.718964,526.648315 
	C452.397949,525.705811 455.250000,525.464661 456.632782,526.025574 
	C471.889160,532.213501 485.686432,540.971619 497.799042,551.988525 
	C507.752106,561.041199 516.831360,571.068604 526.072021,580.876770 
	C527.616394,582.515991 528.794250,585.233826 528.813293,587.464600 
	C529.020935,611.774475 529.750793,636.119080 528.751587,660.388855 
	C527.805176,683.375854 523.959900,706.093628 514.026001,727.219238 
	C511.377777,732.851013 507.641479,737.971008 503.851929,744.240540 
	C484.636353,702.800659 462.990082,664.940247 423.945709,640.203674 
	C426.438416,648.333740 428.931122,656.463806 431.193909,663.843994 
	C409.506989,663.843994 387.952515,663.843994 365.225616,663.843994 
	C366.447296,669.575378 367.184296,674.754578 368.667450,679.710510 
	C378.016602,710.950806 398.639435,732.518921 427.307617,746.838684 
	C434.556549,750.459473 442.272797,753.217896 449.943573,755.885864 
	C453.132050,756.994873 454.222504,758.218628 454.175293,761.714050 
	C453.758026,792.599854 455.731140,823.302979 462.039642,853.622559 
	C462.096466,853.895569 462.280640,854.141968 462.554199,854.709839 
	C468.357056,846.859375 473.905609,839.029785 479.784668,831.456726 
	C502.791351,801.820740 529.032227,775.450562 559.159668,752.987976 
	C560.830200,751.742432 562.150940,749.040833 562.316589,746.914368 
	C564.322327,721.171082 565.737061,695.378540 567.989746,669.658691 
	C570.750305,638.140198 573.361816,606.573792 577.482910,575.218079 
	C582.924622,533.814575 589.704407,492.585480 596.066223,451.305634 
	C597.325928,443.131378 599.296814,435.066711 600.939758,426.951538 
	C601.384888,426.941620 601.830017,426.931702 602.275146,426.921783 
	C607.162842,455.012787 612.644836,483.016510 616.787903,511.216919 
	C621.989563,546.622559 626.550476,582.138245 630.534058,617.702087 
	C633.981750,648.482056 636.300659,679.390076 638.987915,710.252808 
	C640.071594,722.698914 640.726379,735.182312 641.796204,747.629822 
	C641.944580,749.356323 642.921509,751.566345 644.254639,752.555603 
	C682.233032,780.740173 713.964111,814.847900 740.670105,853.757080 
	C740.849182,854.017944 741.089966,854.236572 742.563660,855.893982 
	C744.709167,838.601624 747.242554,822.640015 748.527771,806.578491 
	C749.827637,790.332825 749.891846,773.988220 750.512329,757.281189 
	C779.697937,748.418762 805.340881,733.607849 822.794495,707.167542 
	C831.320496,694.251526 836.880188,680.169739 838.475525,664.245850 
	C816.358032,661.925232 794.664185,662.254456 772.478516,665.165527 
	C775.141235,656.536743 777.620728,648.501648 780.100220,640.466614 
	C779.717041,640.221497 779.333862,639.976440 778.950623,639.731384 
	C741.116333,664.939209 719.569336,702.722900 700.315857,744.228699 
	C696.480164,737.895081 692.719421,732.700012 690.000427,727.007324 
	C681.497620,709.205139 678.206299,690.013916 676.086487,670.611023 
	C673.090698,643.191040 673.499329,615.706421 675.250610,588.234863 
	C675.415771,585.643372 676.611267,582.715027 678.247498,580.683350 
	C691.708130,563.970581 707.186096,549.413208 725.584229,537.549683 
M542.803894,1125.757080 
	C511.088043,1125.468506 486.952362,1111.331177 469.691772,1085.182495 
	C462.004669,1073.536987 454.684235,1061.617920 447.803284,1049.479492 
	C438.216095,1032.567261 429.704987,1015.028625 419.720581,998.364868 
	C414.751038,990.070862 407.922485,982.744751 401.144989,975.745667 
	C398.057312,972.557068 393.055573,971.221863 388.921967,969.046021 
	C388.633514,969.487671 388.345062,969.929260 388.056610,970.370850 
	C388.448029,971.218628 388.809387,972.081726 389.235291,972.911804 
	C395.530243,985.180115 402.140167,997.297729 408.082123,1009.734436 
	C433.387451,1062.699707 450.447998,1118.643677 467.084015,1174.714600 
	C473.413513,1196.047974 477.715485,1218.087769 485.424072,1238.885498 
	C503.038849,1286.410156 535.618713,1319.356812 584.938782,1334.170044 
	C591.222351,1336.057373 598.047668,1337.907349 604.404968,1337.340332 
	C612.551331,1336.614014 620.720764,1334.072266 628.459167,1331.184326 
	C676.506897,1313.253540 706.514587,1278.090088 721.858276,1230.183350 
	C732.186890,1197.934570 740.409302,1165.017822 750.148743,1132.572388 
	C766.805542,1077.082764 787.117126,1023.034668 815.401794,972.254578 
	C815.735413,971.655701 815.855896,970.938110 816.220886,969.839417 
	C807.240295,970.846252 800.885010,975.624023 796.250000,981.912842 
	C788.976807,991.780945 782.258606,1002.124146 776.074463,1012.715210 
	C762.588074,1035.811890 750.219727,1059.580933 736.220703,1082.353638 
	C719.879517,1108.936523 696.343384,1124.722656 664.153503,1125.619751 
	C651.936035,1125.960205 639.817078,1125.925781 628.310913,1121.061279 
	C620.624023,1117.811523 615.339111,1112.461792 614.125977,1103.836304 
	C613.774658,1101.338257 614.144897,1099.752441 617.191223,1098.688721 
	C632.852722,1093.219360 645.596375,1083.505005 655.716003,1070.461792 
	C674.862183,1045.784424 680.744080,1016.959290 681.350525,986.589661 
	C681.375732,985.328003 680.425354,983.759766 679.462097,982.806885 
	C635.378052,939.199402 568.553040,939.529785 524.832764,982.625183 
	C523.771362,983.671509 522.759033,985.410950 522.776978,986.813660 
	C523.115417,1013.336060 527.893311,1038.778931 542.175293,1061.661743 
	C553.564148,1079.909058 569.263855,1092.980347 589.708496,1099.786011 
	C590.460144,1109.465210 585.837097,1116.690552 576.073242,1120.959595 
	C565.754089,1125.471436 554.780334,1125.928833 542.803894,1125.757080 
z"/>
<path fill="#FDFDFE" opacity="1.000000" stroke="none" 
	d="
M340.065948,432.105316 
	C341.507324,423.348572 342.538666,414.500122 344.472168,405.853394 
	C349.038788,385.431335 354.643280,365.304138 364.451202,345.982239 
	C356.081268,347.089874 348.372437,348.110046 339.272003,349.314362 
	C344.988190,335.776611 350.006226,323.040497 355.694183,310.610962 
	C365.467834,289.253021 377.286896,269.028656 390.628326,249.686157 
	C391.848938,247.916504 392.958344,245.431702 392.756775,243.415207 
	C389.741058,213.247070 383.056274,184.054688 368.849823,156.970612 
	C367.308807,154.032745 365.551208,151.208466 363.575012,147.777588 
	C362.285370,149.428665 361.200348,150.743240 360.194733,152.115997 
	C318.315155,209.284592 284.883484,271.119293 258.049469,336.628723 
	C245.775009,366.594208 233.173950,396.425934 220.707764,426.312775 
	C220.047745,427.895081 219.263870,429.425751 218.316071,430.893341 
	C225.599533,374.278442 237.980576,318.935883 258.573883,265.607117 
	C276.538269,219.086273 299.538391,175.368500 332.051270,137.237457 
	C342.373627,125.131393 354.083527,114.208450 365.975433,101.898438 
	C372.095062,108.313850 377.357605,113.549240 382.307068,119.065536 
	C411.990112,152.148041 432.204071,190.764572 446.742462,232.352295 
	C454.126282,253.473969 459.370270,275.342224 465.646423,296.854065 
	C466.627167,300.215485 465.794647,302.260712 462.620758,304.064362 
	C456.072144,307.785980 449.781494,311.961487 442.845856,316.286285 
	C458.007294,317.780701 472.294403,319.188965 487.995026,320.736542 
	C432.669128,351.309998 384.029083,388.153564 340.347900,431.998352 
	C340.027985,432.041473 340.065948,432.105316 340.065948,432.105316 
z"/>
<path fill="#FDFDFE" opacity="1.000000" stroke="none" 
	d="
M832.785522,161.792755 
	C820.094788,187.907211 814.087952,215.407547 811.326843,243.718353 
	C811.133362,245.702301 812.454468,248.118912 813.684387,249.914307 
	C833.890564,279.409760 850.344055,310.826904 862.447876,344.492615 
	C862.939331,345.859528 863.340210,347.259003 863.945496,349.149750 
	C855.827087,348.095734 848.116577,347.094666 839.857666,346.022369 
	C853.189575,373.716339 859.669983,402.894043 865.138855,433.597046 
	C820.794373,388.758484 772.002808,351.580994 717.700256,320.670624 
	C731.899536,319.231354 746.098755,317.792053 761.216003,316.259735 
	C755.123413,312.425812 749.689148,308.489868 743.791443,305.454468 
	C738.875305,302.924286 737.567627,300.201233 738.877319,294.590424 
	C751.720947,239.565216 770.959351,187.235443 804.262390,141.040375 
	C813.946106,127.608070 825.516479,115.535919 836.710449,102.261070 
	C842.038330,106.859787 846.425171,110.342705 850.470093,114.185509 
	C883.263611,145.340485 907.342651,182.675858 927.021484,223.033600 
	C954.192566,278.756592 970.897766,337.740662 981.094666,398.707703 
	C982.302429,405.928619 983.506775,413.150818 984.607300,420.388489 
	C984.965515,422.744507 984.987976,425.151581 984.093933,427.773804 
	C981.374817,421.117920 978.780273,414.407928 975.916504,407.814880 
	C955.934937,361.812683 936.810547,315.408752 915.611877,269.973236 
	C895.883850,227.690018 870.415955,188.596802 842.991089,150.846176 
	C842.316895,149.918091 841.531433,149.070831 840.403381,147.710037 
	C837.792236,152.527679 835.372314,156.992386 832.785522,161.792755 
z"/>
<path fill="#A1C4DD" opacity="1.000000" stroke="none" 
	d="
M437.113831,695.878052 
	C444.895081,699.857056 452.725739,703.745789 460.390625,707.937561 
	C461.277344,708.422485 461.903320,710.804749 461.532867,711.944092 
	C458.446014,721.436951 449.318665,727.992737 439.270294,728.246948 
	C417.911316,728.787476 403.474487,710.225952 409.522736,689.254456 
	C413.457062,689.806274 417.472687,690.369446 421.400757,690.920349 
	C422.127106,707.753906 430.485565,715.562195 443.016815,711.610291 
	C440.906555,706.784668 438.795532,701.957275 436.776184,696.632935 
	C436.867859,696.135986 437.113831,695.878052 437.113831,695.878052 
z"/>
<path fill="#A1C4DE" opacity="1.000000" stroke="none" 
	d="
M767.413574,696.505127 
	C765.345093,701.527344 763.276550,706.549622 761.210327,711.566284 
	C773.217712,715.931885 782.410034,707.398743 782.536072,690.978210 
	C786.459106,690.408569 790.466125,689.826782 794.385315,689.257751 
	C799.381958,703.558228 792.396912,719.655273 779.035889,725.440735 
	C764.072205,731.920166 750.617126,727.663513 743.520752,714.453552 
	C741.622986,710.920898 741.366943,708.466858 745.431702,706.483276 
	C752.417786,703.074036 759.302612,699.457458 766.712158,696.086365 
	C767.194275,696.244873 767.413574,696.505127 767.413574,696.505127 
z"/>
<path fill="#FDFDFE" opacity="1.000000" stroke="none" 
	d="
M340.005341,432.012054 
	C339.855804,432.193970 339.728943,432.405304 339.602051,432.616638 
	C339.612640,432.340485 339.623260,432.064301 339.849915,431.946716 
	C340.065948,432.105316 340.027985,432.041473 340.005341,432.012054 
z"/>
<path fill="#A1C4DD" opacity="1.000000" stroke="none" 
	d="
M436.743805,696.263916 
	C436.736694,696.081543 436.853607,695.771301 437.042175,695.669556 
	C437.113831,695.878052 436.867859,696.135986 436.743805,696.263916 
z"/>
<path fill="#A1C4DE" opacity="1.000000" stroke="none" 
	d="
M767.088196,696.111816 
	C767.157654,695.787781 767.333252,695.596802 767.508789,695.405884 
	C767.571350,695.666199 767.634033,695.926575 767.555176,696.346069 
	C767.413574,696.505127 767.194275,696.244873 767.088196,696.111816 
z"/>
<path fill="#020F30" opacity="1.000000" stroke="none" 
	d="
M543.272095,1125.770996 
	C554.780334,1125.928833 565.754089,1125.471436 576.073242,1120.959595 
	C585.837097,1116.690552 590.460144,1109.465210 589.708496,1099.786011 
	C569.263855,1092.980347 553.564148,1079.909058 542.175293,1061.661743 
	C527.893311,1038.778931 523.115417,1013.336060 522.776978,986.813660 
	C522.759033,985.410950 523.771362,983.671509 524.832764,982.625183 
	C568.553040,939.529785 635.378052,939.199402 679.462097,982.806885 
	C680.425354,983.759766 681.375732,985.328003 681.350525,986.589661 
	C680.744080,1016.959290 674.862183,1045.784424 655.716003,1070.461792 
	C645.596375,1083.505005 632.852722,1093.219360 617.191223,1098.688721 
	C614.144897,1099.752441 613.774658,1101.338257 614.125977,1103.836304 
	C615.339111,1112.461792 620.624023,1117.811523 628.310913,1121.061279 
	C639.817078,1125.925781 651.936035,1125.960205 664.153503,1125.619751 
	C696.343384,1124.722656 719.879517,1108.936523 736.220703,1082.353638 
	C750.219727,1059.580933 762.588074,1035.811890 776.074463,1012.715210 
	C782.258606,1002.124146 788.976807,991.780945 796.250000,981.912842 
	C800.885010,975.624023 807.240295,970.846252 816.220886,969.839417 
	C815.855896,970.938110 815.735413,971.655701 815.401794,972.254578 
	C787.117126,1023.034668 766.805542,1077.082764 750.148743,1132.572388 
	C740.409302,1165.017822 732.186890,1197.934570 721.858276,1230.183350 
	C706.514587,1278.090088 676.506897,1313.253540 628.459167,1331.184326 
	C620.720764,1334.072266 612.551331,1336.614014 604.404968,1337.340332 
	C598.047668,1337.907349 591.222351,1336.057373 584.938782,1334.170044 
	C535.618713,1319.356812 503.038849,1286.410156 485.424072,1238.885498 
	C477.715485,1218.087769 473.413513,1196.047974 467.084015,1174.714600 
	C450.447998,1118.643677 433.387451,1062.699707 408.082123,1009.734436 
	C402.140167,997.297729 395.530243,985.180115 389.235291,972.911804 
	C388.809387,972.081726 388.448029,971.218628 388.056610,970.370850 
	C388.345062,969.929260 388.633514,969.487671 388.921967,969.046021 
	C393.055573,971.221863 398.057312,972.557068 401.144989,975.745667 
	C407.922485,982.744751 414.751038,990.070862 419.720581,998.364868 
	C429.704987,1015.028625 438.216095,1032.567261 447.803284,1049.479492 
	C454.684235,1061.617920 462.004669,1073.536987 469.691772,1085.182495 
	C486.952362,1111.331177 511.088043,1125.468506 543.272095,1125.770996 
M551.318359,1274.097412 
	C557.009399,1276.408325 562.753296,1278.598145 568.382263,1281.051636 
	C590.344482,1290.624023 612.197876,1290.352783 634.198853,1281.008179 
	C643.657593,1276.990601 653.619507,1274.130371 662.975952,1269.909058 
	C669.371399,1267.023560 676.072510,1263.666504 680.980408,1258.836792 
	C700.034607,1240.085571 704.440918,1202.365112 690.883118,1179.344727 
	C688.875244,1175.935425 686.087463,1172.985596 683.660522,1169.823242 
	C688.094849,1202.784058 674.321594,1228.059814 654.290100,1250.581665 
	C650.697571,1246.481445 647.551147,1242.890259 643.941040,1238.769897 
	C634.833679,1257.680054 619.901550,1264.932495 601.247192,1264.986084 
	C582.396179,1265.040039 567.333008,1257.722900 558.192749,1238.763916 
	C554.529419,1242.964233 551.366882,1246.590454 547.815369,1250.662598 
	C527.907898,1227.873535 513.735352,1202.642212 518.813721,1169.793579 
	C515.063293,1174.296265 511.368774,1178.819092 509.008881,1183.955078 
	C502.361206,1198.422852 502.022888,1213.683960 505.543854,1228.926025 
	C510.534485,1250.530396 522.086487,1266.481323 544.912781,1271.966919 
	C546.839783,1272.429932 548.679688,1273.255127 551.318359,1274.097412 
M586.806702,1179.742065 
	C579.043396,1166.720703 559.958618,1160.880859 546.791443,1163.595825 
	C547.886230,1186.026855 556.009521,1204.910278 574.601929,1218.399414 
	C584.144043,1225.322388 594.807068,1229.942261 606.831665,1227.352173 
	C631.985657,1221.933960 645.897339,1204.761108 652.832397,1181.122803 
	C654.515442,1175.385742 654.830078,1169.247314 655.776978,1163.274292 
	C636.846191,1160.930420 621.322021,1168.808105 612.900818,1184.288452 
	C611.232056,1187.356079 609.785645,1190.556396 607.956055,1193.522583 
	C603.922363,1200.062012 598.383545,1200.063843 594.374451,1193.473389 
	C591.785156,1189.217163 589.565369,1184.736328 586.806702,1179.742065 
M590.729980,974.132507 
	C575.618286,976.700745 561.653931,981.561951 551.310364,993.943542 
	C584.186646,976.635925 617.056396,976.377930 650.414673,993.040222 
	C645.933533,988.819458 641.327026,984.809692 636.084473,981.977356 
	C622.211304,974.482056 607.196594,972.426758 590.729980,974.132507 
z"/>
<path fill="#FCFCFD" opacity="1.000000" stroke="none" 
	d="
M550.939209,1274.004883 
	C548.679688,1273.255127 546.839783,1272.429932 544.912781,1271.966919 
	C522.086487,1266.481323 510.534485,1250.530396 505.543854,1228.926025 
	C502.022888,1213.683960 502.361206,1198.422852 509.008881,1183.955078 
	C511.368774,1178.819092 515.063293,1174.296265 518.813721,1169.793579 
	C513.735352,1202.642212 527.907898,1227.873535 547.815369,1250.662598 
	C551.366882,1246.590454 554.529419,1242.964233 558.192749,1238.763916 
	C567.333008,1257.722900 582.396179,1265.040039 601.247192,1264.986084 
	C619.901550,1264.932495 634.833679,1257.680054 643.941040,1238.769897 
	C647.551147,1242.890259 650.697571,1246.481445 654.290100,1250.581665 
	C674.321594,1228.059814 688.094849,1202.784058 683.660522,1169.823242 
	C686.087463,1172.985596 688.875244,1175.935425 690.883118,1179.344727 
	C704.440918,1202.365112 700.034607,1240.085571 680.980408,1258.836792 
	C676.072510,1263.666504 669.371399,1267.023560 662.975952,1269.909058 
	C653.619507,1274.130371 643.657593,1276.990601 634.198853,1281.008179 
	C612.197876,1290.352783 590.344482,1290.624023 568.382263,1281.051636 
	C562.753296,1278.598145 557.009399,1276.408325 550.939209,1274.004883 
z"/>
<path fill="#E2002B" opacity="1.000000" stroke="none" 
	d="
M586.993347,1180.049072 
	C589.565369,1184.736328 591.785156,1189.217163 594.374451,1193.473389 
	C598.383545,1200.063843 603.922363,1200.062012 607.956055,1193.522583 
	C609.785645,1190.556396 611.232056,1187.356079 612.900818,1184.288452 
	C621.322021,1168.808105 636.846191,1160.930420 655.776978,1163.274292 
	C654.830078,1169.247314 654.515442,1175.385742 652.832397,1181.122803 
	C645.897339,1204.761108 631.985657,1221.933960 606.831665,1227.352173 
	C594.807068,1229.942261 584.144043,1225.322388 574.601929,1218.399414 
	C556.009521,1204.910278 547.886230,1186.026855 546.791443,1163.595825 
	C559.958618,1160.880859 579.043396,1166.720703 586.993347,1180.049072 
z"/>
<path fill="#F6F6F7" opacity="1.000000" stroke="none" 
	d="
M591.169800,974.090942 
	C607.196594,972.426758 622.211304,974.482056 636.084473,981.977356 
	C641.327026,984.809692 645.933533,988.819458 650.414673,993.040222 
	C617.056396,976.377930 584.186646,976.635925 551.310364,993.943542 
	C561.653931,981.561951 575.618286,976.700745 591.169800,974.090942 
z"/>
</svg>